<?xml version="1.0" encoding="UTF-8"?>
<!DOCTYPE svg PUBLIC "-//W3C//DTD SVG 1.1//EN" "http://www.w3.org/Graphics/SVG/1.1/DTD/svg11.dtd">
<!-- Creator: CorelDRAW 2021 (64-Bit) -->
<svg xmlns="http://www.w3.org/2000/svg" xml:space="preserve" width="700px" height="202px" version="1.1" style="shape-rendering:geometricPrecision; text-rendering:geometricPrecision; image-rendering:optimizeQuality; fill-rule:evenodd; clip-rule:evenodd"
viewBox="0 0 697.635 201.284"
 xmlns:xlink="http://www.w3.org/1999/xlink"
 xmlns:xodm="http://www.corel.com/coreldraw/odm/2003">
 <defs>
  <style type="text/css">
   <![CDATA[
    .fil1 {fill:#091639}
    .fil0 {fill:#1EB6FF}
    .fil2 {fill:#091639;fill-rule:nonzero}
    .fil3 {fill:#1EB6FF;fill-rule:nonzero}
   ]]>
  </style>
 </defs>
 <g id="Layer_x0020_1">
  <metadata id="CorelCorpID_0Corel-Layer"/>
  <path class="fil0" d="M168.842 110.461l-39.004 22.519 16.875 29.226c5.205,9.017 2.088,20.653 -6.929,25.859 -9.017,5.206 -20.654,2.088 -25.86,-6.929l-16.874 -29.227 -40.1 23.152c-8.887,5.107 -20.232,2.043 -25.339,-6.844 -1.678,-2.92 -2.474,-6.105 -2.471,-9.248l-0.078 0 0 -19.594 -29.062 -6.358 48.871 0 0.014 0.067 50.732 0c12.766,0 23.213,-10.445 23.212,-23.212l0.001 0c-0.001,-12.767 -10.447,-23.213 -23.213,-23.213l-8.7 0 -2.691 0 -13.756 0c-4.895,0 -8.899,-4.004 -8.899,-8.898 0,-4.894 4.004,-8.898 8.899,-8.898l80.111 0 15.32 8.845c8.887,5.147 11.919,16.525 6.771,25.412 -1.904,3.288 -4.662,5.773 -7.83,7.341zm-39.055 -55.913l29.509 0 -40.868 -6.558 -4.966 -2.868 -0.018 0.032 -55.96 -32.308c-2.84,-1.764 -6.191,-2.783 -9.781,-2.783 -10.255,0 -18.568,8.312 -18.568,18.567l0 65.169 -0.072 0 -0.001 24.971 70.168 0c4.894,0 8.898,-4.004 8.898,-8.898 0,-4.894 -4.004,-8.898 -8.898,-8.898l-8.313 0 0 0 -16.834 0c-12.766,0 -23.213,-10.446 -23.213,-23.213l0 0c0,-12.767 10.447,-23.213 23.213,-23.213l36.343 0 19.361 0z"/>
  <path class="fil1" d="M129.787 54.548l29.509 0 -40.868 -6.558 -4.966 -2.868 -0.018 0.032 -55.96 -32.308c-2.84,-1.764 -6.191,-2.784 -9.781,-2.784 -10.255,0.001 -18.568,8.313 -18.568,18.568l0 65.169 -0.072 0 0 24.971 70.167 0c4.894,0 8.898,-4.004 8.898,-8.898 0.001,-4.894 -4.004,-8.898 -8.898,-8.898l-8.313 0 0 0 -16.834 0c-12.766,0 -23.213,-10.446 -23.213,-23.213l0 0c0,-12.767 10.447,-23.213 23.213,-23.213l36.342 0 19.362 0z"/>
  <path class="fil2" d="M337.493 41.301c-0.347,-0.463 -1.562,-1.331 -3.644,-2.603 -2.082,-1.273 -4.685,-2.603 -7.809,-3.991 -3.124,-1.389 -6.536,-2.603 -10.239,-3.645 -3.701,-1.041 -7.404,-1.561 -11.105,-1.561 -10.182,0 -15.272,3.413 -15.272,10.238 0,2.083 0.55,3.818 1.649,5.206 1.099,1.388 2.719,2.632 4.859,3.731 2.14,1.1 4.83,2.112 8.069,3.037 3.24,0.926 6.999,1.967 11.28,3.124 5.9,1.619 11.222,3.383 15.965,5.292 4.743,1.91 8.763,4.281 12.061,7.115 3.297,2.835 5.842,6.276 7.635,10.325 1.793,4.049 2.69,8.908 2.69,14.577 0,6.942 -1.302,12.813 -3.905,17.614 -2.603,4.801 -6.045,8.677 -10.325,11.627 -4.28,2.95 -9.197,5.09 -14.751,6.42 -5.553,1.331 -11.279,1.996 -17.18,1.996 -4.511,0 -9.139,-0.347 -13.882,-1.041 -4.743,-0.694 -9.37,-1.707 -13.883,-3.037 -4.511,-1.33 -8.879,-2.921 -13.101,-4.772 -4.223,-1.851 -8.128,-3.991 -11.714,-6.421l12.494 -24.815c0.463,0.579 1.967,1.677 4.513,3.297 2.545,1.619 5.697,3.239 9.457,4.859 3.76,1.62 7.954,3.066 12.581,4.338 4.628,1.273 9.313,1.91 14.057,1.91 10.064,0 15.097,-3.066 15.097,-9.198 0,-2.314 -0.752,-4.223 -2.256,-5.727 -1.504,-1.503 -3.587,-2.863 -6.247,-4.078 -2.661,-1.214 -5.814,-2.342 -9.458,-3.384 -3.644,-1.041 -7.607,-2.197 -11.887,-3.471 -5.668,-1.735 -10.585,-3.615 -14.75,-5.639 -4.165,-2.025 -7.607,-4.367 -10.326,-7.028 -2.719,-2.661 -4.743,-5.727 -6.074,-9.198 -1.33,-3.471 -1.995,-7.52 -1.995,-12.147 0,-6.478 1.215,-12.205 3.644,-17.18 2.43,-4.974 5.727,-9.168 9.892,-12.581 4.165,-3.413 8.994,-5.987 14.49,-7.722 5.495,-1.735 11.308,-2.603 17.44,-2.603 4.28,0 8.503,0.405 12.668,1.214 4.165,0.81 8.156,1.851 11.974,3.124 3.818,1.273 7.375,2.719 10.672,4.338 3.297,1.62 6.334,3.239 9.11,4.859l-12.494 23.601zm139.869 -3.991l26.377 0 -37.657 91.105 -22.734 0 -14.056 -37.483 -14.055 37.483 -22.734 0 -37.657 -91.105 26.204 0 24.815 65.422 8.504 -24.815 -16.139 -40.607 22.212 0 8.85 27.418 8.677 -27.418 22.213 0 -15.966 40.607 8.504 24.815 24.642 -65.422zm35.227 91.105l0 -91.105 27.765 0 0 91.105 -27.765 0zm0 -101.517l0 -25.163 27.765 0 0 25.163 -27.765 0zm52.753 101.517l0 -62.645 -11.626 0 0 -20.999 11.626 0 0 -7.461c0,-5.669 0.753,-10.817 2.257,-15.445 1.504,-4.627 3.644,-8.561 6.421,-11.8 2.776,-3.239 6.131,-5.726 10.064,-7.462 3.934,-1.735 8.272,-2.603 13.016,-2.603 7.404,0 15.328,1.793 23.774,5.379l-5.033 20.825c-1.851,-0.81 -3.904,-1.476 -6.16,-1.996 -2.256,-0.521 -4.368,-0.781 -6.334,-0.781 -6.826,0 -10.239,4.28 -10.239,12.842l0 8.502 21.171 0 0 20.999 -21.171 0 0 62.645 -27.766 0zm119.913 -4.859c-3.818,1.62 -8.186,3.124 -13.102,4.512 -4.917,1.388 -9.863,2.082 -14.837,2.082 -3.471,0 -6.739,-0.433 -9.805,-1.301 -3.066,-0.868 -5.756,-2.256 -8.069,-4.165 -2.314,-1.909 -4.136,-4.425 -5.467,-7.548 -1.33,-3.124 -1.995,-6.884 -1.995,-11.28l0 -47.548 -11.627 0 0 -20.998 11.627 0 0 -28.98 27.765 0 0 28.98 18.568 0 0 20.998 -18.568 0 0 38.003c0,3.009 0.752,5.177 2.256,6.508 1.504,1.33 3.413,1.996 5.726,1.996 2.083,0 4.223,-0.348 6.421,-1.042 2.199,-0.694 4.107,-1.446 5.727,-2.256l5.38 22.039z"/>
  <path class="fil3" d="M460.231 155.777c1.21,5.445 0.842,10.933 -1.102,16.466 -1.945,5.531 -5.165,10.415 -9.66,14.65 -3.629,3.457 -7.67,6.05 -12.122,7.779 -4.451,1.728 -9.01,2.593 -13.677,2.593 -3.631,0 -7.239,-0.498 -10.826,-1.491 -3.587,-0.994 -6.871,-2.485 -9.854,-4.473 -2.981,-1.988 -5.51,-4.43 -7.584,-7.326 -2.074,-2.895 -3.457,-6.287 -4.149,-10.177 -0.432,-2.679 -0.41,-5.401 0.065,-8.168 0.475,-2.766 1.297,-5.424 2.464,-7.974 1.166,-2.549 2.679,-4.904 4.537,-7.065 1.859,-2.161 3.954,-4.019 6.288,-5.575 2.248,-1.383 4.322,-2.377 6.223,-2.982 1.815,-0.605 3.328,-1.599 4.538,-2.982 1.21,-1.383 2.031,-2.982 2.463,-4.797l4.797 -25.8c0.173,-0.691 0.519,-1.254 1.038,-1.685 0.518,-0.433 1.123,-0.649 1.815,-0.649 0.432,0 0.778,0.044 1.037,0.13 1.469,0.605 2.031,1.685 1.685,3.241l-2.463 13.484c-0.259,1.21 0.021,2.312 0.842,3.306 0.821,0.994 1.837,1.491 3.048,1.491 0.431,0 0.778,-0.044 1.036,-0.13 3.804,-1.037 6.807,-2.593 9.011,-4.667 2.205,-2.074 3.868,-4.257 4.992,-6.548 1.123,-2.29 1.858,-4.429 2.204,-6.417 0.345,-1.988 0.518,-3.371 0.518,-4.149 0.087,-2.766 -0.886,-5.273 -2.916,-7.52 -2.032,-2.247 -4.733,-3.803 -8.104,-4.667 -0.95,-0.26 -1.836,-0.432 -2.657,-0.518 -0.822,-0.087 -1.664,-0.13 -2.529,-0.13 -2.852,0 -5.51,0.54 -7.973,1.62 -2.463,1.08 -4.754,2.485 -6.872,4.214 -2.118,1.728 -3.997,3.673 -5.639,5.834 -1.643,2.161 -3.025,4.365 -4.149,6.612 -0.518,1.124 -1.383,1.685 -2.593,1.685 -0.519,0 -0.994,-0.129 -1.426,-0.388 -0.692,-0.433 -1.124,-1.038 -1.296,-1.815 -0.173,-0.778 -0.087,-1.513 0.258,-2.204 1.989,-3.89 4.214,-7.196 6.677,-9.918 2.464,-2.723 4.992,-4.906 7.585,-6.548 2.593,-1.642 5.229,-2.831 7.909,-3.565 2.679,-0.735 5.272,-1.103 7.779,-1.103 2.333,0 4.451,0.26 6.353,0.779 4.753,1.21 8.513,3.457 11.279,6.741 2.765,3.285 4.062,7.002 3.889,11.15 -0.259,9.767 -4.062,17.244 -11.409,22.429 -0.691,0.433 -0.994,1.103 -0.908,2.01 0.087,0.908 0.52,1.534 1.297,1.88 9.767,4.149 15.86,11.928 18.281,23.337zm235.054 -8.557c0.864,0.173 1.512,0.605 1.945,1.297 0.432,0.691 0.518,1.426 0.259,2.204 -1.902,7.346 -5.035,13.332 -9.4,17.956 -4.365,4.624 -9.27,8.536 -14.715,11.734 -0.951,0.691 -1.556,1.555 -1.815,2.592 -0.173,0.692 -0.346,1.21 -0.519,1.556 -0.95,3.63 -2.009,6.525 -3.176,8.687 -1.167,2.16 -2.333,3.846 -3.501,5.056 -1.167,1.21 -2.29,2.009 -3.371,2.399 -1.08,0.388 -2.052,0.583 -2.916,0.583 -1.989,0 -3.631,-0.67 -4.927,-2.009 -1.297,-1.341 -2.161,-2.918 -2.593,-4.733 -0.432,-1.988 -0.152,-4.192 0.843,-6.612 0.994,-2.42 3.176,-4.408 6.547,-5.964 1.469,-0.691 2.873,-1.362 4.214,-2.01 1.339,-0.648 2.657,-1.317 3.954,-2.009 0.778,-0.259 1.209,-0.821 1.296,-1.685l0.13 -0.649c0.173,-0.345 0.13,-0.648 -0.13,-0.907 -0.26,-0.26 -0.562,-0.389 -0.908,-0.389 -0.258,0 -0.431,0.043 -0.518,0.129 -1.124,0.865 -2.442,1.599 -3.954,2.204 -1.513,0.605 -2.961,0.908 -4.344,0.908 -2.506,0 -4.667,-0.908 -6.482,-2.722 -1.774,-1.707 -2.942,-4.073 -3.504,-7.099 -0.632,1.047 -1.301,2.052 -2.006,3.014 -1.427,1.945 -3.004,3.566 -4.732,4.862 -1.729,1.297 -3.544,1.945 -5.446,1.945 -2.765,0 -4.797,-1.08 -6.093,-3.241 -1.21,-2.074 -1.47,-4.797 -0.778,-8.168 0.692,-3.371 1.686,-7.261 2.982,-11.668 1.037,-3.371 1.902,-6.504 2.593,-9.4 0.691,-2.896 1.059,-5.446 1.102,-7.65 0.043,-2.204 -0.303,-4.04 -1.037,-5.51 -0.735,-1.469 -2.01,-2.506 -3.825,-3.111 -0.346,-0.087 -0.865,-0.13 -1.555,-0.13 -2.248,0 -4.279,0.865 -6.094,2.593 -1.815,1.729 -3.393,3.781 -4.732,6.158 -1.34,2.377 -2.464,4.819 -3.371,7.325 -0.908,2.507 -1.578,4.582 -2.01,6.224l-6.353 24.244c-0.259,0.865 -0.713,1.426 -1.361,1.686 -0.649,0.259 -1.361,0.389 -2.139,0.389 -0.778,-0.173 -1.362,-0.605 -1.75,-1.297 -0.097,-0.171 -0.176,-0.345 -0.238,-0.522 -0.262,0.226 -0.528,0.443 -0.799,0.652 -1.686,1.296 -3.523,1.944 -5.511,1.944 -1.469,0 -2.679,-0.28 -3.63,-0.842 -0.951,-0.562 -1.642,-1.189 -2.074,-1.88 -1.037,-1.383 -1.664,-3.241 -1.88,-5.575 -0.071,-0.77 -0.105,-1.582 -0.101,-2.437 -0.998,1.066 -2.045,2.051 -3.141,2.956 -2.722,2.247 -5.596,3.975 -8.621,5.186 -3.025,1.21 -5.964,1.815 -8.816,1.815 -3.025,0 -5.77,-0.821 -8.233,-2.463 -2.464,-1.643 -4.559,-3.977 -6.288,-7.002 -0.433,-0.691 -1.037,-1.037 -1.815,-1.037 -1.124,0 -1.815,0.519 -2.074,1.556l-1.816 6.871c-0.259,0.951 -0.692,1.534 -1.296,1.751 -0.605,0.216 -1.34,0.324 -2.204,0.324 -0.692,-0.173 -1.232,-0.605 -1.621,-1.297 -0.388,-0.691 -0.497,-1.426 -0.324,-2.204l2.724 -10.307c-2.483,1.705 -5.336,2.937 -8.558,3.695 -0.173,0 -0.346,0.022 -0.519,0.065 -0.173,0.043 -0.345,0.065 -0.518,0.065 -1.902,0.432 -3.415,1.339 -4.538,2.722 -1.556,1.988 -3.5,3.804 -5.834,5.446 -2.334,1.642 -4.841,2.463 -7.52,2.463 -2.42,0 -4.581,-0.864 -6.482,-2.593 -2.247,-2.161 -3.523,-5.38 -3.825,-9.659 -0.074,-1.041 -0.092,-2.132 -0.056,-3.274 -2.8,2.268 -6.13,3.857 -9.992,4.765 -0.173,0 -0.346,0.022 -0.519,0.065 -0.172,0.043 -0.345,0.065 -0.518,0.065 -1.901,0.432 -3.414,1.339 -4.538,2.722 -1.555,1.988 -3.5,3.804 -5.834,5.446 -2.333,1.642 -4.84,2.463 -7.52,2.463 -2.42,0 -4.58,-0.864 -6.482,-2.593 -2.247,-2.161 -3.522,-5.38 -3.825,-9.659 -0.302,-4.278 0.324,-9.4 1.88,-15.364 2.421,-9.161 5.683,-15.946 9.788,-20.355 4.106,-4.407 8.103,-6.611 11.993,-6.611 1.037,0 1.816,0.086 2.334,0.259 1.469,0.346 2.874,1.145 4.214,2.398 1.339,1.254 2.377,3.004 3.111,5.251 0.735,2.247 1.102,4.992 1.102,8.233 0,3.241 -0.562,7.066 -1.685,11.474 -0.26,1.037 -0.541,2.053 -0.843,3.047 -0.303,0.994 -0.627,1.966 -0.972,2.916 -0.26,0.693 -0.173,1.297 0.259,1.816 0.432,0.519 0.95,0.778 1.556,0.778 0.345,0 0.691,-0.087 1.037,-0.259 3.717,-2.248 6.223,-5.489 7.519,-9.724 0.066,-0.208 0.146,-0.401 0.24,-0.578 2.379,-8.479 5.519,-14.812 9.419,-19 4.106,-4.407 8.103,-6.611 11.993,-6.611 1.037,0 1.815,0.086 2.333,0.259 1.47,0.346 2.874,1.145 4.214,2.398 1.34,1.254 2.377,3.004 3.111,5.251 0.736,2.247 1.103,4.992 1.103,8.233 0,3.241 -0.562,7.066 -1.686,11.474 -0.259,1.037 -0.54,2.053 -0.843,3.047 -0.302,0.994 -0.626,1.966 -0.972,2.916 -0.259,0.693 -0.172,1.297 0.259,1.816 0.433,0.519 0.951,0.778 1.556,0.778 0.346,0 0.692,-0.087 1.038,-0.259 3.717,-2.248 6.222,-5.489 7.519,-9.724 0.101,-0.325 0.239,-0.611 0.412,-0.859l12.553 -47.5c0.432,-1.469 1.34,-2.204 2.723,-2.204 0.172,0 0.302,0.021 0.389,0.064 0.086,0.043 0.216,0.065 0.389,0.065 0.691,0.173 1.231,0.606 1.621,1.297 0.388,0.691 0.496,1.426 0.323,2.204l-5.834 22.04c-0.172,0.778 0.022,1.469 0.584,2.075 0.561,0.605 1.188,0.907 1.879,0.907 0.519,0 0.951,-0.13 1.297,-0.389 1.469,-1.124 3.047,-2.031 4.732,-2.723 1.686,-0.691 3.436,-1.037 5.251,-1.037 3.285,0 5.834,1.297 7.649,3.89 1.297,1.815 1.945,3.911 1.945,6.288 0,2.377 -0.432,4.797 -1.297,7.26 -0.864,2.463 -2.117,4.84 -3.759,7.131 -1.643,2.29 -3.501,4.257 -5.575,5.899 -3.976,3.025 -7.865,4.537 -11.669,4.537 -0.605,0 -1.426,-0.086 -2.463,-0.259l-0.389 0c-0.951,0 -1.707,0.367 -2.269,1.103 -0.562,0.734 -0.627,1.577 -0.194,2.527 1.21,3.026 2.787,5.424 4.732,7.196 1.944,1.772 4.084,2.658 6.418,2.658 2.247,0 4.602,-0.519 7.065,-1.556 2.464,-1.037 4.797,-2.507 7.002,-4.408 2.204,-1.902 4.191,-4.214 5.964,-6.936 0.96,-1.475 1.786,-3.046 2.479,-4.711 0.216,-0.954 0.449,-1.934 0.697,-2.939 0.95,-3.846 2.031,-8.017 3.241,-12.511 0.605,-2.074 1.167,-4.17 1.686,-6.288 0.518,-2.117 1.08,-4.213 1.685,-6.288 0.259,-1.469 1.124,-2.204 2.593,-2.204 0.173,0 0.302,0.022 0.389,0.065 0.087,0.043 0.216,0.065 0.389,0.065 0.777,0.173 1.361,0.583 1.75,1.231 0.389,0.648 0.497,1.362 0.324,2.14 -0.518,2.161 -1.059,4.299 -1.62,6.418 -0.562,2.117 -1.103,4.213 -1.621,6.287 -0.843,3.288 -1.687,6.597 -2.529,9.926 0.025,0.305 0.004,0.627 -0.064,0.965 -0.285,1.141 -0.612,2.249 -0.979,3.321 -0.44,1.901 -0.826,3.711 -1.16,5.43 -0.562,2.896 -0.886,5.445 -0.972,7.649 -0.087,2.205 0.173,3.739 0.777,4.603 0.26,0.26 0.649,0.389 1.167,0.389 1.21,0 2.463,-0.778 3.76,-2.334 1.296,-1.556 2.507,-3.479 3.63,-5.769 1.124,-2.291 2.118,-4.689 2.982,-7.196 0.865,-2.506 1.47,-4.71 1.815,-6.612 0.117,-0.584 0.333,-1.05 0.647,-1.397l6.225 -23.755c0.432,-1.469 1.339,-2.204 2.722,-2.204 0.173,0 0.303,0.022 0.389,0.065 0.087,0.044 0.216,0.065 0.389,0.065 1.21,0.259 1.902,1.038 2.074,2.334 0.173,0.259 0.39,0.388 0.649,0.388 0.259,0 0.562,-0.086 0.907,-0.259 1.124,-0.777 2.42,-1.425 3.89,-1.945 1.469,-0.518 2.852,-0.777 4.148,-0.777 1.297,0 2.421,0.173 3.371,0.518 3.371,1.037 5.683,2.744 6.937,5.121 1.253,2.377 1.88,5.1 1.88,8.168 0,3.068 -0.433,6.31 -1.297,9.724 -0.864,3.414 -1.729,6.634 -2.593,9.659 -0.432,1.47 -0.886,2.982 -1.361,4.538 -0.475,1.555 -0.865,3.046 -1.167,4.472 -0.302,1.427 -0.497,2.701 -0.584,3.825 -0.086,1.124 0.044,1.945 0.39,2.464 0.173,0.172 0.388,0.302 0.648,0.388 1.556,0 3.133,-0.907 4.732,-2.722 1.599,-1.815 3.046,-3.955 4.343,-6.418 1.297,-2.463 2.42,-4.927 3.371,-7.39 0.581,-1.504 1.049,-2.791 1.404,-3.861 0.129,-0.542 0.266,-1.092 0.411,-1.649 2.421,-9.161 5.683,-15.925 9.788,-20.29 4.106,-4.365 8.061,-6.547 11.864,-6.547 1.124,0 1.945,0.086 2.463,0.259 1.556,0.345 3.112,1.296 4.667,2.852 0.346,0.346 0.735,0.519 1.167,0.519 0.951,0 1.513,-0.432 1.686,-1.297l0.129 -0.13c0.259,-1.382 1.167,-2.074 2.723,-2.074 0.346,0 0.778,0.087 1.297,0.26 1.296,0.691 1.771,1.814 1.426,3.371l-0.778 2.852c-0.519,1.987 -1.254,4.753 -2.204,8.297 -0.951,3.544 -1.988,7.477 -3.112,11.798 -0.087,0.173 -0.129,0.303 -0.129,0.389 0,0.087 -0.044,0.217 -0.13,0.389 -0.087,0.26 -0.151,0.541 -0.195,0.843 -0.043,0.303 -0.108,0.584 -0.194,0.843 -0.692,2.679 -1.426,5.402 -2.204,8.167 -0.778,2.767 -1.513,5.533 -2.204,8.298 -0.173,0.605 -0.065,1.102 0.324,1.491 0.388,0.389 0.843,0.584 1.361,0.584 0.432,0 0.821,-0.13 1.167,-0.389 3.198,-2.594 6.007,-5.554 8.427,-8.881 2.421,-3.328 4.235,-7.325 5.445,-11.993 0.432,-1.47 1.513,-2.204 3.242,-2.204zm-31.116 40.451c0.173,-0.433 0.13,-0.821 -0.13,-1.167 -0.259,-0.346 -0.605,-0.519 -1.037,-0.519 -0.086,0 -0.173,0.022 -0.259,0.065 -0.087,0.043 -0.173,0.065 -0.26,0.065 -0.345,0.172 -0.691,0.345 -1.037,0.518 -0.345,0.173 -0.691,0.346 -1.037,0.519 -1.902,0.864 -3.133,1.88 -3.695,3.047 -0.562,1.166 -0.756,2.225 -0.583,3.176 0.259,1.47 0.907,2.204 1.945,2.204 0.691,0 1.577,-0.561 2.657,-1.685 1.081,-1.123 2.226,-3.198 3.436,-6.223zm10.242 -37.599c0.087,-0.259 0.151,-0.54 0.194,-0.842 0.044,-0.303 0.109,-0.584 0.195,-0.843 1.469,-5.878 1.815,-10.523 1.037,-13.937 -0.777,-3.415 -2.074,-5.338 -3.889,-5.77 -0.173,-0.086 -0.519,-0.13 -1.037,-0.13 -1.124,0 -2.399,0.433 -3.825,1.297 -1.426,0.865 -2.874,2.226 -4.343,4.084 -1.469,1.858 -2.918,4.213 -4.344,7.066 -1.298,2.597 -2.435,5.66 -3.411,9.188 0.012,0.308 -0.038,0.616 -0.154,0.925l-0.45 1.395c-1.229,5.019 -1.684,9.004 -1.365,11.958 0.345,3.198 1.081,5.316 2.204,6.353 0.691,0.692 1.512,1.037 2.463,1.037 2.075,0 4.019,-0.842 5.835,-2.528 1.815,-1.685 3.457,-3.695 4.926,-6.028 1.47,-2.334 2.723,-4.733 3.76,-7.196 1.037,-2.464 1.772,-4.473 2.204,-6.029zm-73.252 -29.949c-0.605,0 -1.296,-0.302 -2.074,-0.907 -0.518,-0.605 -0.756,-1.297 -0.713,-2.075 0.043,-0.778 0.367,-1.426 0.972,-1.944 0.519,-0.519 1.167,-0.778 1.945,-0.778 0.864,0 1.556,0.302 2.075,0.907 1.209,1.383 1.166,2.68 -0.13,3.89l-0.13 0.13c-0.518,0.518 -1.167,0.777 -1.945,0.777zm-46.025 24.375c-0.951,1.728 -0.994,3.479 -0.13,5.25 0.865,1.772 2.291,2.745 4.278,2.918 2.075,0 3.717,-0.173 4.927,-0.519 1.21,-0.346 2.679,-1.253 4.408,-2.723 1.642,-1.297 3.09,-2.809 4.344,-4.538 1.253,-1.729 2.225,-3.478 2.916,-5.251 0.692,-1.771 1.103,-3.457 1.232,-5.056 0.13,-1.599 -0.151,-2.917 -0.842,-3.954 -0.26,-0.432 -0.606,-0.799 -1.038,-1.102 -0.431,-0.303 -1.124,-0.454 -2.074,-0.454 -0.173,0 -0.346,0.021 -0.519,0.065 -0.173,0.043 -0.345,0.065 -0.518,0.065 -1.297,0.259 -2.701,0.821 -4.214,1.685 -1.512,0.864 -3.046,1.988 -4.602,3.371 -1.557,1.383 -3.047,2.939 -4.473,4.668 -1.426,1.729 -2.658,3.586 -3.695,5.575zm-35.005 26.189c0.863,-0.519 1.253,-1.254 1.166,-2.205 -0.086,-0.951 -0.605,-1.599 -1.556,-1.944 -2.766,-0.951 -5.272,-2.55 -7.519,-4.797 -0.173,-0.173 -0.324,-0.368 -0.454,-0.584 -0.13,-0.216 -0.281,-0.41 -0.453,-0.583 -0.26,2.852 -0.173,5.164 0.259,6.936 0.432,1.772 1.037,3.047 1.815,3.825 0.605,0.605 1.426,0.908 2.463,0.908 0.865,0 1.621,-0.152 2.269,-0.455 0.648,-0.302 1.318,-0.669 2.01,-1.101zm12.705 -21.133c1.556,-6.05 1.945,-10.847 1.167,-14.391 -0.778,-3.544 -2.075,-5.532 -3.89,-5.964 -0.259,-0.087 -0.605,-0.13 -1.036,-0.13 -1.989,0 -4.366,1.362 -7.132,4.084 -2.765,2.723 -5.272,7.196 -7.519,13.419 -1.297,4.667 -0.649,8.427 1.945,11.279 1.469,1.642 3.5,2.853 6.093,3.631 0.692,0.173 1.253,0.259 1.686,0.259 1.21,0 2.333,-0.324 3.371,-0.972 1.036,-0.649 1.814,-1.535 2.333,-2.658 0.519,-1.297 1.037,-2.658 1.556,-4.084 0.518,-1.426 0.994,-2.917 1.426,-4.473zm-51.989 21.133c0.864,-0.519 1.253,-1.254 1.167,-2.205 -0.086,-0.951 -0.605,-1.599 -1.556,-1.944 -2.766,-0.951 -5.272,-2.55 -7.52,-4.797 -0.172,-0.173 -0.324,-0.368 -0.454,-0.584 -0.129,-0.216 -0.281,-0.41 -0.453,-0.583 -0.26,2.852 -0.173,5.164 0.259,6.936 0.432,1.772 1.037,3.047 1.815,3.825 0.605,0.605 1.426,0.908 2.463,0.908 0.865,0 1.621,-0.152 2.269,-0.455 0.648,-0.302 1.319,-0.669 2.01,-1.101zm12.705 -21.133c1.556,-6.05 1.945,-10.847 1.167,-14.391 -0.777,-3.544 -2.074,-5.532 -3.889,-5.964 -0.259,-0.087 -0.605,-0.13 -1.037,-0.13 -1.989,0 -4.365,1.362 -7.131,4.084 -2.766,2.723 -5.273,7.196 -7.52,13.419 -1.297,4.667 -0.648,8.427 1.945,11.279 1.47,1.642 3.5,2.853 6.094,3.631 0.691,0.173 1.252,0.259 1.685,0.259 1.21,0 2.334,-0.324 3.371,-0.972 1.037,-0.649 1.815,-1.535 2.334,-2.658 0.518,-1.297 1.037,-2.658 1.555,-4.084 0.519,-1.426 0.994,-2.917 1.426,-4.473zm-47.97 33.19c3.803,-3.63 6.504,-7.736 8.103,-12.317 1.599,-4.58 1.924,-9.075 0.973,-13.484 -2.852,-13.483 -12.014,-20.916 -27.486,-22.299 -1.037,0 -1.966,0.281 -2.787,0.843 -0.822,0.562 -1.318,1.361 -1.491,2.398 -0.173,0.951 -0.022,1.772 0.453,2.464 0.476,0.691 1.146,1.166 2.01,1.426 3.198,0.778 6.309,2.16 9.335,4.149 0.691,0.431 1.123,1.059 1.296,1.88 0.173,0.821 0,1.577 -0.519,2.268 -0.432,0.692 -1.209,1.038 -2.333,1.038 -0.519,0 -1.037,-0.13 -1.556,-0.389 -2.42,-1.556 -4.71,-2.637 -6.871,-3.242 -2.161,-0.605 -4.192,-0.907 -6.094,-0.907 -2.42,0 -4.537,0.346 -6.353,1.037 -1.815,0.691 -3.327,1.426 -4.538,2.204 -3.889,2.507 -6.827,5.899 -8.816,10.178 -1.987,4.278 -2.635,8.621 -1.944,13.029 0.432,3.025 1.534,5.705 3.306,8.039 1.771,2.333 3.911,4.278 6.418,5.834 2.506,1.556 5.228,2.744 8.168,3.565 2.938,0.821 5.834,1.232 8.686,1.232 4.062,0 7.995,-0.756 11.798,-2.269 3.803,-1.512 7.217,-3.738 10.242,-6.677zm-27.485 -33.839c0.691,0.173 1.253,0.541 1.685,1.103 0.432,0.561 0.562,1.188 0.389,1.88l-3.241 17.372c-0.346,1.384 -1.167,2.075 -2.464,2.075 -0.259,0 -0.432,-0.043 -0.518,-0.13 -0.691,-0.173 -1.253,-0.518 -1.686,-1.037 -0.432,-0.519 -0.561,-1.123 -0.388,-1.815l3.37 -17.373c0.26,-1.383 1.211,-2.075 2.853,-2.075z"/>
 </g>
</svg>
